<svg id="13754150-8491-477d-8d93-7dcb940f3857" data-name="Layer 1" xmlns="http://www.w3.org/2000/svg" xmlns:xlink="http://www.w3.org/1999/xlink" width="910.16" height="538.16" viewBox="0 0 910.16 538.16"><defs><linearGradient id="972b2406-8ce6-4e65-b13d-d59c498e501e" x1="337.96" y1="719.08" x2="337.96" y2="245.96" gradientUnits="userSpaceOnUse"><stop offset="0" stop-color="gray" stop-opacity="0.25"/><stop offset="0.54" stop-color="gray" stop-opacity="0.12"/><stop offset="1" stop-color="gray" stop-opacity="0.1"/></linearGradient><linearGradient id="54269e07-e455-44df-bab8-a5cc8a3263c1" x1="847.04" y1="711.39" x2="847.04" y2="257.5" xlink:href="#972b2406-8ce6-4e65-b13d-d59c498e501e"/><linearGradient id="a9ea79b9-c06c-49ba-ac05-6561942fe6f8" x1="444.71" y1="141.41" x2="444.71" y2="92.33" xlink:href="#972b2406-8ce6-4e65-b13d-d59c498e501e"/><linearGradient id="5a5727a1-a3e1-4dac-9410-37cd0ddb384f" x1="513.95" y1="183.73" x2="513.95" y2="134.64" xlink:href="#972b2406-8ce6-4e65-b13d-d59c498e501e"/><linearGradient id="db20f9da-1a43-431a-a380-4c2adb9b93b6" x1="590.89" y1="129.87" x2="590.89" y2="80.79" xlink:href="#972b2406-8ce6-4e65-b13d-d59c498e501e"/><linearGradient id="38abfc7c-e950-495f-9d86-42aeebe01871" x1="512.88" y1="49.3" x2="512.88" y2="0.21" xlink:href="#972b2406-8ce6-4e65-b13d-d59c498e501e"/><linearGradient id="dbaa4488-8b23-4137-98cb-5b0ad8da4e2d" x1="436.16" y1="49.09" x2="436.16" y2="0" xlink:href="#972b2406-8ce6-4e65-b13d-d59c498e501e"/><linearGradient id="9d0a5ab8-f9a0-44fb-9908-9fb858382c05" x1="366.91" y1="91.4" x2="366.91" y2="42.32" xlink:href="#972b2406-8ce6-4e65-b13d-d59c498e501e"/></defs><title>brainstorming</title><rect x="626.08" y="298.93" width="61.06" height="8.53" fill="#e0e0e0"/><path d="M377.52,565.7h8.15a28.53,28.53,0,0,0,28.53-28.53V529a28.52,28.52,0,0,0-27.58-28.5,5.19,5.19,0,0,0,3.13-4.77h0a17,17,0,0,0-.26-2.92,5.18,5.18,0,0,0,.26-1.61h0a17,17,0,0,0-5-12l-3.11-3.11a13.07,13.07,0,0,0-10.76-3.75A119.59,119.59,0,0,0,353.06,476l-77.12-16.76c2.65-16.05,5.27-33.84,6.71-49.12l1.36.91.44-1.32,31.93,25.55s7.7,0,16.3-8.15,57.05-65.2,57.05-65.2L405.37,358l-1.54,18.73,50-11.24-11.57-54.16L383.78,325.7l4.72,16.42-2.84,11.67-65.2,53L296,375.17l.26-.78-1.75-1.75,1.75-2.33L268,338l2.39-16.74.93-.59.48-3.36h-.84l.13-.94a28.53,28.53,0,0,0,8.49-38.66,14.13,14.13,0,0,0,.37-3.85l-.08-16.29a14.71,14.71,0,0,0-.93-6.19,5.94,5.94,0,0,0-.36-.65,8.38,8.38,0,0,0-.55-1.61c-.89-1.91-2.9-3.47-5-3.13-1.91.31-3.22,2-4.51,3.44a26.14,26.14,0,0,1-27.33,7.06c-2.37-.82-4.66-2-7.16-2.28s-5.37.66-6.39,3c-1.13,2.57.46,5.66-.43,8.32-1.72,5.16-10.41,4.23-13,9-1.18,2.21-.61,4.55.55,6.85.75,2.66,2.78,5.34,4.35,7.77a29.62,29.62,0,0,1,2.21,4.12c2.09,5.68,3,11.89,4.73,17.75a53.25,53.25,0,0,0,2.06,5.72c1.87,5,5.3,11.94,9.68,12.49l.29,0c-24,9.44-62.9,138-61.22,173.49-.18,4.76.1,8.49.93,10.89l.81.19a107.65,107.65,0,0,0-.81,15.2h0a36.68,36.68,0,0,0,36.68,36.68h-4.08c-87.78,0-46.17,55.76-65,144.15h0l385,1.89v7.33C530.47,631.3,465.29,565.7,377.52,565.7Z" transform="translate(-144.92 -180.92)" fill="url(#972b2406-8ce6-4e65-b13d-d59c498e501e)"/><path d="M522.86,711.23l-377.95-1.11h0c21.61-80.11-8.33-140,70.19-148.92H372.83a150,150,0,0,1,150,150Z" transform="translate(-144.92 -180.92)" fill="#ff6b6b"/><path d="M276.66,407.32l38.47,30.78s7.27,0,15.39-7.69,53.86-61.55,53.86-61.55L399.76,365l-3.85-23.08-15.39,19.23-61.55,50L280.72,361.8Z" transform="translate(-144.92 -180.92)" fill="#fdb797"/><polygon points="151.19 199.68 147.34 195.84 128.11 226.61 139.65 234.3 151.19 199.68" opacity="0.05"/><polygon points="97.33 161.64 100.97 141.76 127.9 141.76 124.05 168.69 97.33 161.64" fill="#fdb797"/><path d="M380.53,561.2H219a34.62,34.62,0,0,1-34.62-34.62h0c0-14.87.94-30.78,15.82-30.78l180.38,3.85a26.93,26.93,0,0,1,26.93,26.93v7.69A26.93,26.93,0,0,1,380.53,561.2Z" transform="translate(-144.92 -180.92)" fill="#4d8af0"/><rect x="120.42" y="299.7" width="111.56" height="19.23" fill="#ccc"/><path d="M269.18,350.68s.21,3.63-22.87-7.91-70.1,145.76-62,169.26c0,0,45.74,11.54,84.63-7.69,0,0,15-73.09,15.39-107.71l11.54-15.39Z" transform="translate(-144.92 -180.92)" opacity="0.05"/><path d="M269.18,346s.21,3.63-22.87-7.91-70.1,145.76-62,169.26c0,0,45.74,11.54,84.63-7.69,0,0,15-73.09,15.39-107.71l11.54-15.39Z" transform="translate(-144.92 -180.92)" fill="#3ad29f"/><path d="M226.65,407.75l7.69,65.4s-.43,15,30.78,15.39l80.79,3.85s15,7.69,23.08,0,7.69,7.69,7.69,7.69h2.79a4.9,4.9,0,0,0,4.9-4.9h0a16,16,0,0,0-4.69-11.33l-2.93-2.93a12.33,12.33,0,0,0-10.16-3.54,112.88,112.88,0,0,0-16.84,3.47L261.27,461.6V403.9Z" transform="translate(-144.92 -180.92)" opacity="0.05"/><path d="M226.65,403.47l7.69,65.4s-.43,15,30.78,15.39l80.79,3.85s15,7.69,23.08,0,7.69,7.69,7.69,7.69h2.79a4.9,4.9,0,0,0,4.9-4.9h0a16,16,0,0,0-4.69-11.33l-2.93-2.93a12.33,12.33,0,0,0-10.16-3.54,112.88,112.88,0,0,0-16.84,3.47l-88.48-19.23v-57.7Z" transform="translate(-144.92 -180.92)" fill="#fdb797"/><path d="M246.1,331.85a26.94,26.94,0,0,0,26.48-1.93l.45-3.17H246.1Z" transform="translate(-144.92 -180.92)" opacity="0.05"/><circle cx="112.51" cy="122.53" r="26.93" fill="#fdb797"/><path d="M247.85,326.1c.45-2.13.84-4.6-.52-6.3-.8-1-2.06-1.53-3-2.44-3.15-3.19-.38-8.58,2.86-11.67A47.06,47.06,0,0,1,274.29,293c1.71-.19,3.58-.35,4.84-1.52,1.51-1.4,1.61-3.72,1.6-5.79l-.07-15.38a13.89,13.89,0,0,0-.87-5.85c-.84-1.8-2.74-3.27-4.7-3-1.8.29-3,1.89-4.26,3.25a24.68,24.68,0,0,1-25.8,6.66c-2.24-.78-4.4-1.89-6.76-2.15s-5.07.63-6,2.8c-1.07,2.42.43,5.34-.4,7.85-1.62,4.87-9.83,4-12.25,8.52-2,3.8,1.42,8,3.76,11.66,4.35,6.74,5.14,15.09,7.4,22.78,1.2,4.09,5,14.39,10.23,15C247.16,338.75,246.88,330.66,247.85,326.1Z" transform="translate(-144.92 -180.92)" opacity="0.05"/><path d="M247,324c.45-2.13.84-4.6-.52-6.3-.8-1-2.06-1.53-3-2.44-3.15-3.19-.38-8.58,2.86-11.67a47.06,47.06,0,0,1,27.06-12.65c1.71-.19,3.58-.35,4.84-1.52,1.51-1.4,1.61-3.72,1.6-5.79l-.07-15.38a13.89,13.89,0,0,0-.87-5.85c-.84-1.8-2.74-3.27-4.7-3-1.8.29-3,1.89-4.26,3.25a24.68,24.68,0,0,1-25.8,6.66c-2.24-.78-4.4-1.89-6.76-2.15s-5.07.63-6,2.8c-1.07,2.42.43,5.34-.4,7.85-1.62,4.87-9.83,4-12.25,8.52-2,3.8,1.42,8,3.76,11.66,4.35,6.74,5.14,15.09,7.4,22.78,1.2,4.09,5,14.39,10.23,15C246.31,336.61,246,328.52,247,324Z" transform="translate(-144.92 -180.92)" fill="#333"/><ellipse cx="245.67" cy="313.71" rx="3.85" ry="5.77" transform="translate(-268.86 -16.06) rotate(-30)" fill="#fdb797"/><polygon points="81.52 222.34 81.95 226.61 116.57 222.76 116.14 218.49 81.52 222.34" opacity="0.05"/><polygon points="139.65 211.22 124.26 165.06 151.19 195.84 139.65 211.22" opacity="0.05"/><rect x="395.03" y="319.83" width="48.96" height="47.4" transform="translate(-207.84 -84.9) rotate(-12.15)" fill="#7cfcff"/><path d="M406.17,352.51l-7.36,2.24c-2,.62-7.14,4.6-6.53,6.62h0c.62,2,6.74,1.35,8.76.74l7.36-2.24a3.86,3.86,0,0,0,2.56-4.8h0A3.86,3.86,0,0,0,406.17,352.51Z" transform="translate(-144.92 -180.92)" fill="#fdb797"/><path d="M1008.77,560.5H927.48l3.94-.11a40.76,40.76,0,0,0,28.89-13c8.75-9.49,16.12-24.12,7.6-43.3,0,0-23-100.42-59.14-143.29a21.17,21.17,0,0,0,1.4-9.23c.44-5.66-1.47-11.22-6.35-14.15-3.3-2-7.7-2.79-9.5-6.19a7.61,7.61,0,0,1-.78-2.8c.38-5.21,2.12-10.25,2.8-15.44a26.81,26.81,0,0,0,.19-5.13c.3-5-.73-10.19-4.37-13.46s-3.64-12-8-14c-8.33-3.89-14.17-8.89-20-16s-19.5-8.77-27.71-4.65c-4.43,2.22-7.24,7-11.8,8.92-2.84,1.22-6,1.21-9,2-7.83,2.09-13.38,10.43-12.57,18.43a15.57,15.57,0,0,0,.25,4.7c1,4.59,4.78,6.75,9.88,7.82a28,28,0,0,0,23.72,34.3l1.31,4.57,1.29.07,4.45,15.57h1l-.8.22-4.22,23.77s-16.34,23.41,7.78,47.76h0l1.11,1.64L796,440.09a24.76,24.76,0,0,0-12.66-4.47l8.64-16.28a2,2,0,0,0-3.59-1.76l-9.69,18.28a24,24,0,0,0-10.72,4.72,2.06,2.06,0,0,0,1.11,3.69c1.43.1,3.1.27,4.87.53l1.09,2.58-1,3h0a8.79,8.79,0,0,0,8,3.47l4-3.47,10.18,1.28a29.52,29.52,0,0,0,5,.43H864l.15.22h2c3.58,6,6.77,12.11,9.54,17.88L828,488.08H807.46a9.47,9.47,0,0,0-5.74,1.93c-7.21,5.5-15.06.13-20.17-1a1.77,1.77,0,0,0-1.61,3c13.88,12.88,40,8.08,40,8.08l63.27-12.65c1.52,3.78,2.69,6.92,3.48,9.13C873.6,498.84,775.43,516.19,768,524.07c-8,8.44-16,7.55-28,40L680,688.38h0c-11,0-41,10.12-41,21.16v-.16l49.44,2H712l322.77-1.54c1.49,0,0,1.49,0,0h0C1034.76,624,1094.66,560.5,1008.77,560.5ZM778,445.54a38.54,38.54,0,0,1,8.39,2.78h-9.86Zm35.35,118a154.8,154.8,0,0,0-19,5.11,29,29,0,0,0,1.6-4.64Z" transform="translate(-144.92 -180.92)" fill="url(#54269e07-e455-44df-bab8-a5cc8a3263c1)"/><path d="M1035.54,712.33,696.4,711.23h0A153.45,153.45,0,0,1,849.85,557.78h150.88c84.75,0,34.8,69.81,34.8,154.56Z" transform="translate(-144.92 -180.92)" fill="#ff6b6b"/><polygon points="693.39 153.31 701.09 180.23 728.01 180.23 712.63 141.76 693.39 153.31" fill="#be7c5e"/><path d="M857.55,430.4l-57.7,11.54s-12.94-10.07-27,.47a2,2,0,0,0,1.06,3.55c4.63.34,11.69,1.32,17.23,4.14a30.23,30.23,0,0,0,13.68,3.39h71.92Z" transform="translate(-144.92 -180.92)" fill="#be7c5e"/><path d="M684.43,692.42l34.62-.43s76.51-111.56,80.79-130.8l130.42-3.52a39,39,0,0,0,27.57-12.39c8.47-9.12,15.67-23.25,7.43-41.79-15.39-34.62-76.72-7.48-76.72-7.48s-107.93,18.59-115.62,26.71S757.53,530,746,561.2Z" transform="translate(-144.92 -180.92)" fill="#333"/><path d="M642.12,711.23h76.94l.21-19.45-34.62-3.42c-10.62,0-42.53,12.24-42.53,22.87Z" transform="translate(-144.92 -180.92)" fill="#f5f5f5"/><polygon points="704.72 249.26 720.53 272.77 724.38 272.77 708.99 249.69 704.72 249.26" opacity="0.05"/><path d="M846.22,361.37l-4.06,22.87s-15.82,22.65,7.69,46.16,38.47,69.24,38.47,69.24,41.89,19.23,76.94,3.85c0,0-30.78-134.64-76.94-153.88Z" transform="translate(-144.92 -180.92)" fill="#f55f44"/><path d="M896,391.93s22.65,26.5,26.93,84.63l-23.08,7.69-76.94,15.39s-25.16,4.43-38.51-8a1.7,1.7,0,0,1,1.56-2.89c4.9,1.12,12.4,6.47,19.31,1.25a9.33,9.33,0,0,1,5.62-1.93h19.72L892.17,465l-30.78-61.55Z" transform="translate(-144.92 -180.92)" fill="#be7c5e"/><polygon points="716.47 222.55 720.53 230.46 755.37 215.28 751.1 211.01 716.47 222.55" opacity="0.05"/><polygon points="708.99 222.76 712.84 226.61 762.85 211.22 751.31 203.53 708.99 222.76" fill="#f55f44"/><path d="M861.95,338l-4.4-11L838.31,338.5l2.17,7.6c.69.05,1.39.09,2.1.09A26.84,26.84,0,0,0,861.95,338Z" transform="translate(-144.92 -180.92)" opacity="0.05"/><circle cx="697.67" cy="134.07" r="26.93" fill="#be7c5e"/><path d="M806.9,301.18c-1.71-8.14,3.82-17.13,11.86-19.27,2.87-.77,6-.75,8.69-1.92,4.38-1.88,7.09-6.44,11.35-8.58,7.9-4,21.06-2.36,26.66,4.47s11.23,11.65,19.23,15.39c4.2,2,4.26,10.38,7.7,13.49,4,3.58,4.72,9.59,4,14.9s-2.55,10.45-2.75,15.8a9.37,9.37,0,0,0,.8,4.73c1.72,3.27,6,4.05,9.14,6,9.12,5.48,7.5,20.44-.65,27.28s-19.73,7.53-30.35,7c-5.15-.27-10.41-.79-15.09-3s-8.75-6.27-9.61-11.35a24.51,24.51,0,0,1,.39-7.86l5.31-33.57c.35-2.21.69-4.55-.1-6.64C847.89,303,810.19,316.85,806.9,301.18Z" transform="translate(-144.92 -180.92)" opacity="0.05"/><path d="M806.9,298.19c-1.71-8.14,3.82-17.13,11.86-19.27,2.87-.77,6-.75,8.69-1.92,4.38-1.88,7.09-6.44,11.35-8.58,7.9-4,21.06-2.36,26.66,4.47s11.23,11.65,19.23,15.39c4.2,2,4.26,10.38,7.7,13.49,4,3.58,4.72,9.59,4,14.9s-2.55,10.45-2.75,15.8a9.37,9.37,0,0,0,.8,4.73c1.72,3.27,6,4.05,9.14,6,9.12,5.48,7.5,20.44-.65,27.28s-19.73,7.53-30.35,7c-5.15-.27-10.41-.79-15.09-3s-8.75-6.27-9.61-11.35a24.51,24.51,0,0,1,.39-7.86l5.31-33.57c.35-2.21.69-4.55-.1-6.64C847.89,300,810.19,313.86,806.9,298.19Z" transform="translate(-144.92 -180.92)" fill="#333"/><ellipse cx="707.07" cy="134.28" rx="5.77" ry="7.69" fill="#be7c5e"/><path d="M777.66,452.52h0a1.92,1.92,0,0,1-.88-2.57l15.73-29.67a1.92,1.92,0,0,1,2.57-.88h0A1.92,1.92,0,0,1,796,422l-15.73,29.67A1.92,1.92,0,0,1,777.66,452.52Z" transform="translate(-144.92 -180.92)" fill="#4d8af0"/><rect x="632.06" y="261.23" width="11.54" height="3.85" rx="1.73" ry="1.73" fill="#be7c5e"/><rect x="419.36" y="92.33" width="50.7" height="49.09" fill="url(#a9ea79b9-c06c-49ba-ac05-6561942fe6f8)"/><rect x="420.23" y="93.17" width="48.96" height="47.4" fill="#f5f5f5"/><rect x="488.6" y="134.64" width="50.7" height="49.09" fill="url(#5a5727a1-a3e1-4dac-9410-37cd0ddb384f)"/><rect x="489.47" y="135.49" width="48.96" height="47.4" fill="#f5f5f5"/><rect x="565.54" y="80.79" width="50.7" height="49.09" fill="url(#db20f9da-1a43-431a-a380-4c2adb9b93b6)"/><rect x="566.41" y="81.63" width="48.96" height="47.4" fill="#f5f5f5"/><rect x="487.53" y="0.21" width="50.7" height="49.09" fill="url(#38abfc7c-e950-495f-9d86-42aeebe01871)"/><rect x="488.41" y="1.06" width="48.96" height="47.4" fill="#7cfcff"/><rect x="410.81" width="50.7" height="49.09" fill="url(#dbaa4488-8b23-4137-98cb-5b0ad8da4e2d)"/><rect x="411.68" y="0.85" width="48.96" height="47.4" fill="#ffffa5"/><rect x="341.56" y="42.32" width="50.7" height="49.09" fill="url(#9d0a5ab8-f9a0-44fb-9908-9fb858382c05)"/><rect x="342.44" y="43.16" width="48.96" height="47.4" fill="#ff69b4"/></svg>